<svg xmlns="http://www.w3.org/2000/svg" xmlns:xlink="http://www.w3.org/1999/xlink" width="124" height="124" viewBox="0 0 124 124"><defs><style>.a,.c{fill:#ff6f62;}.a{stroke:#707070;}.b{clip-path:url(#a);}</style><clipPath id="a"><rect class="a" width="124" height="124" transform="translate(550 633)"/></clipPath></defs><g class="b" transform="translate(-550 -633)"><g transform="translate(550 636.663)"><g transform="translate(0 0)"><path class="c" d="M127.124,25.355,51.18,8.39A6,6,0,0,0,44.1,13.253L42.66,23.04l87.627,19.573,1.443-9.787A6.326,6.326,0,0,0,127.124,25.355Z" transform="translate(-7.858 -8.254)"/><path class="c" d="M87.329,49.308a6.014,6.014,0,0,0-7.419-4.43L65.494,49.1,31.506,41.51,27.768,60.152,4.414,66.994a6.431,6.431,0,0,0-4.2,7.83L13.38,124.886a6.013,6.013,0,0,0,7.419,4.429l75.5-22.115a6.432,6.432,0,0,0,4.2-7.831l-2.259-8.594,8.467,1.89a6,6,0,0,0,7.078-4.861l5.357-26.721-30.5-6.812Zm8.719,25.444,1.867-9.315a2.47,2.47,0,0,1,2.912-2l8.824,1.972a2.6,2.6,0,0,1,1.9,3.073L109.68,77.8a2.469,2.469,0,0,1-2.912,2l-8.824-1.971A2.6,2.6,0,0,1,96.048,74.752ZM5.728,71.99l20.893-6.118,49.3-14.44,5.3-1.556a1.049,1.049,0,0,1,.288-.041,1.148,1.148,0,0,1,1.083.859l.623,2.368,1.951,7.422L7.527,83.227,4.953,73.438A1.2,1.2,0,0,1,5.728,71.99Zm90.028,28.765a1.212,1.212,0,0,1-.11.891,1.1,1.1,0,0,1-.665.558L19.486,124.318a1.044,1.044,0,0,1-.288.042,1.149,1.149,0,0,1-1.083-.86L10.439,94.3l77.64-22.744,4.735,18.01Z" transform="translate(0 -12.873)"/><path class="c" d="M35.759,112.324a2.451,2.451,0,0,0-3.025-1.806L23.918,113.1a2.621,2.621,0,0,0-1.709,3.193l2.446,9.305a2.45,2.45,0,0,0,3.025,1.8l8.817-2.582a2.621,2.621,0,0,0,1.711-3.193Z" transform="translate(-4.074 -22.444)"/></g></g></g></svg>