<svg xmlns="http://www.w3.org/2000/svg" xmlns:xlink="http://www.w3.org/1999/xlink" width="128.778" height="122" viewBox="0 0 128.778 122"><defs><style>.a{fill:#fff;stroke:#707070;}.b{clip-path:url(#a);}.c{fill:#262f57;}</style><clipPath id="a"><rect class="a" width="128.778" height="122" transform="translate(550 633)"/></clipPath></defs><g class="b" transform="translate(-550 -633)"><g transform="translate(563.613 633)"><g transform="translate(0)"><path class="c" d="M109.046,0h-92.4a4.574,4.574,0,0,0-4.574,4.574V117.426A4.574,4.574,0,0,0,16.642,122h92.4a4.574,4.574,0,0,0,4.574-4.574V4.574A4.574,4.574,0,0,0,109.046,0ZM28.758,15.863a1.634,1.634,0,0,1,1.634-1.634H95.3a1.634,1.634,0,0,1,1.634,1.634V54.187A1.634,1.634,0,0,1,95.3,55.821h-64.9a1.634,1.634,0,0,1-1.634-1.634ZM54.1,105.8a1.634,1.634,0,0,1-1.634,1.634H34.472a1.634,1.634,0,0,1-1.634-1.634V77.892a1.634,1.634,0,0,1,1.634-1.634H52.466A1.634,1.634,0,0,1,54.1,77.892V105.8Zm6.232-30.546A1.634,1.634,0,0,1,58.7,76.887H56.713a1.634,1.634,0,0,1-1.634-1.634v-.867H31.918v.867a1.634,1.634,0,0,1-1.634,1.634H28.267a1.634,1.634,0,0,1-1.634-1.634v-4.5a1.634,1.634,0,0,1,1.634-1.634H58.7a1.634,1.634,0,0,1,1.634,1.634v4.5Zm12.623,31.765a1.131,1.131,0,0,1-1.131,1.131H65.2a1.131,1.131,0,0,1-1.131-1.131V100.4A1.132,1.132,0,0,1,65.2,99.265h6.622a1.132,1.132,0,0,1,1.131,1.131Zm0-13.051A1.131,1.131,0,0,1,71.823,95.1H65.2a1.131,1.131,0,0,1-1.131-1.131V87.346A1.132,1.132,0,0,1,65.2,86.215h6.622a1.132,1.132,0,0,1,1.131,1.131Zm0-13.05a1.132,1.132,0,0,1-1.131,1.131H65.2a1.132,1.132,0,0,1-1.131-1.131V74.3A1.131,1.131,0,0,1,65.2,73.165h6.622A1.131,1.131,0,0,1,72.954,74.3ZM86,107.018a1.131,1.131,0,0,1-1.131,1.131H78.252a1.131,1.131,0,0,1-1.131-1.131V100.4a1.131,1.131,0,0,1,1.131-1.131h6.621A1.131,1.131,0,0,1,86,100.4Zm0-13.051A1.131,1.131,0,0,1,84.873,95.1H78.252a1.131,1.131,0,0,1-1.131-1.131V87.346a1.131,1.131,0,0,1,1.131-1.131h6.621A1.131,1.131,0,0,1,86,87.346Zm0-13.05a1.131,1.131,0,0,1-1.131,1.131H78.252a1.131,1.131,0,0,1-1.131-1.131V74.3a1.131,1.131,0,0,1,1.131-1.131h6.621A1.131,1.131,0,0,1,86,74.3Zm13.05,26.1a1.131,1.131,0,0,1-1.131,1.131H91.3a1.131,1.131,0,0,1-1.131-1.131V100.4A1.131,1.131,0,0,1,91.3,99.265h6.621a1.131,1.131,0,0,1,1.131,1.131Zm0-13.051A1.131,1.131,0,0,1,97.923,95.1H91.3a1.131,1.131,0,0,1-1.131-1.131V87.346A1.131,1.131,0,0,1,91.3,86.215h6.621a1.131,1.131,0,0,1,1.131,1.131Zm0-13.05a1.131,1.131,0,0,1-1.131,1.131H91.3a1.131,1.131,0,0,1-1.131-1.131V74.3A1.131,1.131,0,0,1,91.3,73.165h6.621A1.131,1.131,0,0,1,99.054,74.3Z" transform="translate(-12.068)"/><path class="c" d="M39.462,49.093h3.01a1.094,1.094,0,0,0,1.055-.8l1.232-4.441h5.469l1.342,4.464a1.1,1.1,0,0,0,1.048.78h3.2a1.095,1.095,0,0,0,1.045-1.419L51.053,28.932a1.094,1.094,0,0,0-1.045-.77H45.19a1.1,1.1,0,0,0-1.047.775L38.414,47.68a1.094,1.094,0,0,0,1.048,1.414Zm7.227-13.215c.2-.715.391-1.559.576-2.38q.079-.351.155-.685c.252,1.017.533,2.131.812,3.062l1.179,4.015H45.567Z" transform="translate(-16.085 -4.302)"/><path class="c" d="M59.182,32.546h4.391V48a1.094,1.094,0,0,0,1.094,1.094H67.62A1.094,1.094,0,0,0,68.715,48V32.546H73.2a1.1,1.1,0,0,0,1.094-1.094v-2.2A1.094,1.094,0,0,0,73.2,28.161H59.182a1.1,1.1,0,0,0-1.094,1.094v2.2A1.1,1.1,0,0,0,59.182,32.546Z" transform="translate(-19.098 -4.302)"/><path class="c" d="M79.638,49.093h2.573A1.1,1.1,0,0,0,83.3,48.05l.325-6.942c.1-1.67.173-3.6.244-5.459q.022-.563.043-1.121c.414,1.99.936,4.143,1.49,6.135l2.013,7.294a1.094,1.094,0,0,0,1.055.8H90.82a1.094,1.094,0,0,0,1.045-.769l2.3-7.371c.672-2.041,1.334-4.287,1.881-6.365.026,2.51.1,4.893.174,6.778l.272,7.008a1.094,1.094,0,0,0,1.093,1.052H100.4a1.095,1.095,0,0,0,1.093-1.155L100.464,29.2a1.094,1.094,0,0,0-1.093-1.034H94.75a1.1,1.1,0,0,0-1.042.759l-1.991,6.194-.008.027c-.638,2.176-1.256,4.571-1.718,6.432-.374-1.831-.874-3.893-1.548-6.4l-.007-.024-1.82-6.205a1.094,1.094,0,0,0-1.05-.787H80.834a1.1,1.1,0,0,0-1.092,1.025l-1.2,18.743a1.095,1.095,0,0,0,1.092,1.164Z" transform="translate(-22.224 -4.302)"/></g></g></g></svg>