<svg xmlns="http://www.w3.org/2000/svg" xmlns:xlink="http://www.w3.org/1999/xlink" width="128.778" height="122" viewBox="0 0 128.778 122"><defs><style>.a{fill:#fff;stroke:#707070;}.b{clip-path:url(#a);}.c{fill:#262f57;}</style><clipPath id="a"><rect class="a" width="128.778" height="122" transform="translate(550 633)"/></clipPath></defs><g class="b" transform="translate(-550 -633)"><g transform="translate(553.266 633)"><path class="c" d="M74.723,139.023c9.348-1.328,17.543-11.085,22.7-25.494a110.962,110.962,0,0,0-22.7-2.672Zm0,0" transform="translate(-11.416 -17.023)"/><path class="c" d="M92.006,137.406c.553-.16,1.1-.321,1.649-.5.461-.148.915-.308,1.37-.467.538-.186,1.073-.377,1.607-.579.454-.173.9-.356,1.356-.54.521-.219,1.04-.436,1.554-.655.449-.2.9-.4,1.341-.612.5-.238,1.007-.48,1.505-.732q.656-.334,1.311-.684.734-.394,1.459-.805c.437-.247.859-.5,1.284-.752q.71-.437,1.413-.874c.419-.267.837-.538,1.25-.817.461-.31.915-.634,1.368-.957.406-.291.811-.581,1.208-.874.437-.337.885-.686,1.324-1.036.389-.31.778-.619,1.161-.938.436-.363.854-.738,1.278-1.114.371-.33.745-.656,1.107-.994.417-.389.824-.793,1.23-1.193.352-.348.708-.69,1.053-1.047.064-.066.125-.138.191-.206a73.431,73.431,0,0,0-14.97-5.761,54.213,54.213,0,0,1-13.963,22.673c.177-.046.354-.083.531-.129.467-.131.926-.275,1.383-.411Zm0,0" transform="translate(-13.764 -17.698)"/><path class="c" d="M138.77,74.681h-26.2a113.3,113.3,0,0,1-4.411,30.226,75.981,75.981,0,0,1,16.581,6.6A61.039,61.039,0,0,0,138.77,74.681Zm0,0" transform="translate(-16.525 -11.496)"/><path class="c" d="M74.723,64.267H103.1a109.293,109.293,0,0,0-4.3-29.15,115.076,115.076,0,0,1-24.072,2.871Zm0,0" transform="translate(-11.416 -5.451)"/><path class="c" d="M74.723.1V28.268a111.036,111.036,0,0,0,22.7-2.672C92.266,11.187,84.071,1.43,74.723.1Zm0,0" transform="translate(-11.416 -0.102)"/><path class="c" d="M74.723,100.961a115.149,115.149,0,0,1,24.072,2.872,109.3,109.3,0,0,0,4.3-29.152H74.723Zm0,0" transform="translate(-11.416 -11.496)"/><path class="c" d="M124.744,26.059a75.983,75.983,0,0,1-16.581,6.6,113.3,113.3,0,0,1,4.411,30.226h26.2a61.057,61.057,0,0,0-14.026-36.824Zm0,0" transform="translate(-16.525 -4.068)"/><path class="c" d="M119.03,19.1c-.064-.065-.125-.135-.188-.2-.346-.356-.7-.7-1.056-1.046-.405-.4-.81-.8-1.228-1.193-.362-.337-.736-.656-1.107-.992-.424-.376-.847-.754-1.282-1.117-.378-.319-.765-.624-1.149-.93-.437-.354-.885-.706-1.336-1.044-.395-.3-.795-.586-1.2-.874-.457-.329-.915-.656-1.38-.969-.409-.275-.824-.544-1.239-.808-.473-.3-.944-.6-1.425-.89-.421-.253-.847-.5-1.274-.745q-.733-.419-1.472-.815c-.437-.219-.874-.457-1.311-.675-.5-.254-1.009-.5-1.529-.738q-.656-.312-1.331-.608c-.517-.229-1.04-.436-1.562-.655-.45-.183-.9-.365-1.353-.538-.53-.2-1.068-.393-1.605-.578-.454-.16-.909-.319-1.37-.468-.546-.177-1.092-.338-1.653-.5-.454-.133-.911-.269-1.371-.39-.176-.048-.355-.085-.532-.131a54.218,54.218,0,0,1,13.963,22.673A73.32,73.32,0,0,0,119.03,19.1Zm0,0" transform="translate(-13.762 -0.421)"/><path class="c" d="M0,62.883H26.2a113.345,113.345,0,0,1,4.41-30.226,75.888,75.888,0,0,1-16.58-6.6A61.041,61.041,0,0,0,0,62.883Zm0,0" transform="translate(0 -4.068)"/><path class="c" d="M65.473,139.023V110.857a111.036,111.036,0,0,0-22.7,2.672c5.156,14.409,13.352,24.165,22.7,25.494Zm0,0" transform="translate(-6.535 -17.023)"/><path class="c" d="M64.449,74.681H36.077a109.258,109.258,0,0,0,4.3,29.152,115,115,0,0,1,24.072-2.872Zm0,0" transform="translate(-5.512 -11.496)"/><path class="c" d="M65.473.1C56.124,1.43,47.928,11.187,42.773,25.6a110.888,110.888,0,0,0,22.7,2.672Zm0,0" transform="translate(-6.535 -0.102)"/><path class="c" d="M64.45,37.987a115.077,115.077,0,0,1-24.072-2.871,109.25,109.25,0,0,0-4.3,29.15H64.45Zm0,0" transform="translate(-5.512 -5.451)"/><path class="c" d="M48.973,2.188c-.177.046-.354.083-.531.129-.463.124-.92.261-1.38.395-.548.16-1.092.321-1.643.5-.464.15-.921.31-1.377.469-.534.189-1.07.377-1.6.577-.457.175-.907.356-1.359.542-.52.219-1.04.437-1.553.655-.45.2-.9.4-1.341.612-.5.238-1.007.48-1.505.732q-.656.334-1.311.684-.734.394-1.457.806-.656.366-1.289.751c-.475.286-.944.581-1.411.874-.42.269-.837.54-1.25.819-.461.31-.915.634-1.368.957-.406.291-.811.581-1.209.875-.447.336-.874.686-1.324,1.035-.388.31-.78.619-1.16.94-.437.361-.852.734-1.274,1.107-.373.333-.75.656-1.115,1-.415.387-.819.789-1.225,1.188-.352.348-.71.691-1.056,1.049-.063.066-.124.139-.19.206a73.349,73.349,0,0,0,14.97,5.762A54.2,54.2,0,0,1,48.973,2.188Zm0,0" transform="translate(-3.063 -0.421)"/><path class="c" d="M21.285,122.267c.406.4.811.8,1.228,1.194.363.336.736.655,1.108.991.424.377.847.754,1.282,1.117.378.317.763.623,1.149.93.437.354.874.706,1.337,1.047.394.3.794.581,1.194.875.457.327.917.655,1.383.97.409.275.824.544,1.239.809.473.3.944.6,1.425.889q.632.381,1.274.746.733.419,1.472.814c.436.219.874.457,1.311.675.5.254,1.009.5,1.529.739q.656.309,1.331.607c.517.229,1.039.436,1.562.655.45.183.9.365,1.353.538.53.2,1.068.394,1.605.579.454.159.909.319,1.37.467.546.177,1.092.339,1.653.5.454.133.911.269,1.37.391.177.048.356.085.533.131a54.228,54.228,0,0,1-13.963-22.674,73.353,73.353,0,0,0-14.97,5.764c.064.065.125.135.189.2.328.354.681.7,1.037,1.044Zm0,0" transform="translate(-3.065 -17.695)"/><path class="c" d="M14.026,111.5a76,76,0,0,1,16.58-6.6A113.342,113.342,0,0,1,26.2,74.68H0A61.051,61.051,0,0,0,14.026,111.5Zm0,0" transform="translate(0 -11.496)"/></g></g></svg>