<svg xmlns="http://www.w3.org/2000/svg" xmlns:xlink="http://www.w3.org/1999/xlink" width="88" height="88" viewBox="0 0 88 88"><defs><style>.a{fill:#fff;stroke:#707070;}.b{clip-path:url(#a);}.c{fill:#e65c64;}.d{fill:#f26d76;}.e{fill:#ffc033;}.f{fill:#43bfbf;}.g{fill:#36d9d9;}.h{fill:#f9a926;}</style><clipPath id="a"><rect class="a" width="88" height="88" transform="translate(208 291)"/></clipPath></defs><g class="b" transform="translate(-208 -291)"><g transform="translate(208.048 291)"><path class="c" d="M72.238,62.873H62.207a2.87,2.87,0,0,1,0-5.74h10.03a2.87,2.87,0,0,1,0,5.74Z" transform="translate(-9.177 -8.79)"/><path class="d" d="M43.021,41.865a2.869,2.869,0,0,1-2.87-2.87V28.965a2.87,2.87,0,0,1,5.74,0v10.03A2.869,2.869,0,0,1,43.021,41.865Z" transform="translate(-6.225 -4.015)"/><path class="e" d="M46.285,2.525a8.609,8.609,0,1,0,0,12.168A8.591,8.591,0,0,0,46.285,2.525Zm-4.047,8.1a2.847,2.847,0,0,1-4.062.012,2.9,2.9,0,0,1,0-4.052,2.865,2.865,0,0,1,4.062,4.04Z" transform="translate(-4.911 0)"/><circle class="f" cx="2.87" cy="2.87" r="2.87" transform="translate(70.453 32.111)"/><circle class="g" cx="2.87" cy="2.87" r="2.87" transform="translate(50.16 11.818)"/><circle class="f" cx="2.87" cy="2.87" r="2.87" transform="translate(70.453 64.578)"/><circle class="g" cx="2.87" cy="2.87" r="2.87" transform="translate(17.693 11.818)"/><path class="e" d="M89.581,9.009a2.869,2.869,0,0,1-2.87-2.87V3.27a2.87,2.87,0,1,1,5.74,0v2.87A2.869,2.869,0,0,1,89.581,9.009Z" transform="translate(-13.388 -0.061)"/><path class="h" d="M89.581,25.967a2.869,2.869,0,0,1-2.87-2.87v-2.87a2.87,2.87,0,0,1,5.74,0V23.1A2.869,2.869,0,0,1,89.581,25.967Z" transform="translate(-13.388 -2.67)"/><path class="e" d="M82.276,16.314h-2.87a2.87,2.87,0,0,1,0-5.74h2.87a2.87,2.87,0,1,1,0,5.74Z" transform="translate(-11.823 -1.627)"/><g transform="translate(70.7 8.948)"><path class="h" d="M99.234,16.314h-2.87a2.87,2.87,0,0,1,0-5.74h2.87a2.87,2.87,0,0,1,0,5.74Z" transform="translate(-85.132 -10.574)"/><path class="h" d="M98.29,52.269a8.609,8.609,0,1,0,0,12.168A8.591,8.591,0,0,0,98.29,52.269Zm-4.047,8.1a2.844,2.844,0,0,1-4.062.013,2.9,2.9,0,0,1,0-4.052,2.864,2.864,0,0,1,4.062,4.039Z" transform="translate(-83.611 -16.6)"/></g><path class="e" d="M54.02,48.619a2.87,2.87,0,0,1-2.029-4.9L69.906,25.8a2.87,2.87,0,0,1,4.058,4.058L56.049,47.778A2.861,2.861,0,0,1,54.02,48.619Z" transform="translate(-7.917 -3.841)"/><path class="h" d="M52.143,47.931a2.868,2.868,0,0,0,4.058,0L74.116,30.016a2.869,2.869,0,0,0,0-4.058L52.143,47.931Z" transform="translate(-8.07 -3.993)"/><path class="d" d="M22.339,85.184v8.1l-18.453,6.5a2.833,2.833,0,0,1-2.977-.672,2.835,2.835,0,0,1-.683-2.99l6.5-18.432h8.121l3.736,3.74Z" transform="translate(-0.057 -11.952)"/><path class="c" d="M22.493,85.864v8.1l-18.453,6.5a2.833,2.833,0,0,1-2.977-.672L18.744,82.11Z" transform="translate(-0.212 -12.632)"/><path class="d" d="M16.712,60.729,35.759,79.783H45.853L56.6,75.995a2.893,2.893,0,0,0,1.76-3.673L24.135,38.113a2.85,2.85,0,0,0-3.654,1.741L16.712,50.533v10.2h0Z" transform="translate(-2.619 -5.838)"/><path class="c" d="M37.488,82.923H47.583l10.749-3.788a2.893,2.893,0,0,0,1.76-3.673l-17.113-17.1L27.953,73.384Z" transform="translate(-4.348 -8.978)"/><path class="e" d="M15.343,52.863,7.939,73.87,23.551,89.463l.057-.019,20.93-7.385Z" transform="translate(-1.269 -8.133)"/><path class="h" d="M24.97,92.118l.057-.019,20.93-7.385L31.366,70.122l-14.2,14.2Z" transform="translate(-2.689 -10.788)"/><path class="g" d="M59.625,79.477a2.861,2.861,0,0,1-2.029-.841L17.01,38.051a2.87,2.87,0,0,1,4.058-4.058L61.654,74.578a2.87,2.87,0,0,1-2.029,4.9Z" transform="translate(-2.536 -5.1)"/><path class="f" d="M61.438,82.478A2.869,2.869,0,0,0,65.5,78.42L45.2,58.128l-4.058,4.058Z" transform="translate(-6.378 -8.943)"/></g></g></svg>